/* XPM */
static char *d4255146f69f4794bf282cc799e66bb9SwyjyMeEcWmTO4Ln[] = {
/* columns rows colors chars-per-pixel */
"80 80 255 2 ",
"   c #030102",
".  c #0B0100",
"X  c #02020B",
"o  c #080908",
"O  c #130100",
"+  c #1C0200",
"@  c #1D0C02",
"#  c #150807",
"$  c #091203",
"%  c #1B1303",
"&  c #010013",
"*  c #070715",
"=  c #0C1318",
"-  c #191315",
";  c #230D01",
":  c #2A0C00",
">  c #240403",
",  c #271608",
"<  c #331A0A",
"1  c #361904",
"2  c #361C13",
"3  c #291613",
"4  c #382405",
"5  c #392618",
"6  c #2D2C00",
"7  c #09122E",
"8  c #39393B",
"9  c #36373A",
"0  c #32302E",
"q  c #16202C",
"w  c #411E09",
"e  c #47230A",
"r  c #4A2A17",
"t  c #522D16",
"y  c #58351A",
"u  c #543010",
"i  c #753B0D",
"p  c #6D3B15",
"a  c #653A1C",
"s  c #6D3C1C",
"d  c #663615",
"f  c #723D15",
"g  c #723E1B",
"h  c #773918",
"j  c #69360C",
"k  c #452F23",
"l  c #4D3525",
"z  c #5B3923",
"x  c #583728",
"c  c #593836",
"v  c #503230",
"b  c #643D23",
"n  c #6C3E23",
"m  c #633D2B",
"M  c #6D3A2A",
"N  c #723D23",
"B  c #733C2A",
"V  c #763A28",
"C  c #653D38",
"Z  c #703C39",
"A  c #594212",
"S  c #6E410D",
"D  c #6E431C",
"F  c #6A4315",
"G  c #724314",
"H  c #73411C",
"J  c #7C481C",
"K  c #6A590B",
"L  c #5D4329",
"P  c #5C4439",
"I  c #6D4223",
"U  c #65432C",
"Y  c #6C442B",
"T  c #6A4828",
"R  c #734324",
"E  c #72442A",
"W  c #774728",
"Q  c #644333",
"!  c #6C4332",
"~  c #6B4A34",
"^  c #684839",
"/  c #744A34",
"(  c #735535",
")  c #6E7822",
"_  c #051554",
"`  c #34394E",
"'  c #071872",
"]  c #0E2677",
"[  c #15297B",
"{  c #17347A",
"}  c #17296A",
"|  c #2A3765",
" . c #35376C",
".. c #343A75",
"X. c #31316F",
"o. c #092557",
"O. c #5B3C43",
"+. c #4D3553",
"@. c #663C43",
"#. c #3E4251",
"$. c #364777",
"%. c #4D444D",
"&. c #684944",
"*. c #6F534A",
"=. c #716F57",
"-. c #787C7E",
";. c #757A79",
":. c #676666",
">. c #424868",
",. c #813E21",
"<. c #81502F",
"1. c #88644E",
"2. c #768314",
"3. c #7B8253",
"4. c #A29C21",
"5. c #FBDD17",
"6. c #F7D907",
"7. c #FDE314",
"8. c #F0E60D",
"9. c #F5DB26",
"0. c #FEE825",
"q. c #F7E735",
"w. c #F1F032",
"e. c #BBB857",
"r. c #A09F57",
"t. c #CBBD72",
"y. c #B8C36C",
"u. c #CCCF55",
"i. c #E7DE4F",
"p. c #F9E946",
"a. c #E5E65D",
"s. c #EFEC4F",
"d. c #D5D867",
"f. c #D3CE6F",
"g. c #E4DB66",
"h. c #E6E669",
"j. c #EBEA77",
"k. c #F2F474",
"l. c #DBE865",
"z. c #0B2A86",
"x. c #152A83",
"c. c #1A2B82",
"v. c #172989",
"b. c #1A328A",
"n. c #1C3594",
"m. c #1A3898",
"M. c #122E96",
"N. c #273486",
"B. c #263B98",
"V. c #2C3886",
"C. c #0E2EA5",
"Z. c #093DAB",
"A. c #1B35A3",
"S. c #1736A9",
"D. c #1B3CB4",
"F. c #1C3CBA",
"G. c #1739B6",
"H. c #1036B6",
"J. c #243BA9",
"K. c #233AB5",
"L. c #1D4193",
"P. c #364893",
"I. c #1943AC",
"U. c #1C43BD",
"Y. c #1844BA",
"T. c #2543AC",
"R. c #2446B7",
"E. c #3251BD",
"W. c #505992",
"Q. c #70778C",
"!. c #4259AB",
"~. c #536AB1",
"^. c #6B7AB6",
"/. c #57628D",
"(. c #1C3AC8",
"). c #0F3EC2",
"_. c #1645C5",
"`. c #1B43C4",
"'. c #1448C3",
"]. c #1A49C5",
"[. c #1A44CB",
"{. c #1948CA",
"}. c #1D42D2",
"|. c #0F40C1",
" X c #2248C8",
".X c #2549CA",
"XX c #ff6176CF",
"oX c #ff7E8693",
"OX c #ff7786BC",
"+X c #ff7881AA",
"@X c #ff7485C2",
"#X c #ff728ECD",
"$X c #ff788FD1",
"%X c #ff7D95F1",
"&X c #ff8A8D93",
"*X c #ff979BA1",
"=X c #ffA7AEB3",
"-X c #ffB3C0B9",
";X c #ffD8D486",
":X c #ffD4D498",
">X c #ffDEEA91",
",X c #ffEEF897",
"<X c #ffEFEE8D",
"1X c #ffDFD8AF",
"2X c #ffFAFBB9",
"3X c #ffEEEDAE",
"4X c #ffE2DCA7",
"5X c #ff8294D5",
"6X c #ffB4BDC6",
"7X c #ffA3B5D4",
"8X c #ffADBBF6",
"9X c #ff93A9E3",
"0X c #ffBCC4CD",
"qX c #ffB6C7F5",
"wX c #ffC7CBCD",
"eX c #ffD8E6D5",
"rX c #ffE9EBC4",
"tX c #ffF9F8C8",
"yX c #ffFBF6DA",
"uX c #ffF3EDD5",
"iX c #ffC8D7FE",
"pX c #ffD1D9EA",
"aX c #ffDBE7E9",
"sX c #ffDAE8FD",
"dX c #ffD9EEF5",
"fX c #ffE4EBEC",
"gX c #ffF4EEEA",
"hX c #ffECF9EC",
"jX c #ffFDF4EC",
"kX c #ffF2FBED",
"lX c #ffFDFDEC",
"zX c #ffF7F5E8",
"xX c #ffE9EDF4",
"cX c #ffE7ECF9",
"vX c #ffF4EDFF",
"bX c #ffECF4F5",
"nX c #ffECFBF4",
"mX c #ffE5F4FE",
"MX c #ffEDF5FC",
"NX c #ffE5FAFE",
"BX c #ffEDFAFE",
"VX c #ffE5F5F2",
"CX c #ffF2F5F4",
"ZX c #ffF2FBF5",
"AX c #ffFBFCF5",
"SX c #ffF3F6FF",
"DX c #ffFAF5FF",
"FX c #ffF1F8FF",
"GX c #ffF1F8FE",
"HX c #ffF1FAFD",
"JX c #ffF1FFFF",
"KX c #ffF6FEFF",
"LX c #ffF1F9FE",
"PX c #ffFAFDFF",
"IX c #ffFAF4F3",
/* pixels */
"SXSXSXSXFXFXHXHXnXHXnXFXFXBXFXFXFXHXSXFXSXMXSXBXBXVXKXVXKXnXVXHXVXHXNXVXBXBXmXmXmXmXBXBXNXmXBXNXmXNXNXNXNXVXnXnXnXnXxXCXSXbXDXSXbXKXFXbXPXbXHXbXHXHXSXnXFXFXSXFX",
"SXSXSXSXFXFXHXHXZXBXHXFXHXFXSXFXBXFXFXMXSXBXBXBXHXVXKXbXZXHXbXKXHXNXBXHXHXHXHXBXKXSXHXHXKXHXHXBXBXBXBXBXHXKXBXHXBXHXPXPXSXPXSXaXPXKXFXfXHXxXKXKXZXFXFXSXFXFXMXFX",
"SXSXSXSXFXFXFXSXFXFXFXFXMXSXSXSXBXBXFXBXBXMXFXFXbXxXZXZXSXPXDXvXiX^.OXOXOX^.OX^.^.$X@XOX@XOXOXOX@X@X@X@X@X@X@X^.@X^.OX^.+XcXPXKXFXcXFXMXKXnXSXKXHXHXFXFXFXFXFXFX",
"FXSXFXFXFXFXFXSXFXFXFXSXSXSXSXSXBXBXBXBXBXBXBXFXBXnXAXHXfXSXDXcX8X] } ] c.[ b.x.c.x.c.x.c.[ c.[ x.x.x.x.v.v.v.v.n.x.N.} } qXsXmXHXcXSXSXPXHXbXFXHXHXFXFXFXFXFXFX",
"HXHXnXSXSXFXSXSXSXSXSXSXSXSXDXSXBXBXBXBXBXFXSXnXAXnXCXSXSXDXDXDXqXm.m.M.J.A.J.A.A.A.J.A.A.A.J.m.m.m.A.A.A.S.F.G.K.C.J.n.N.iXNXBXAXPXFXSXMXSXbXKXSXMXFXHXSXBXFXFX",
"ZXHXHXSXFXFXSXSXSXDXSXSXSXSXSXSXHXHXBXBXBXFXnXZXhXZXSXPXDXwXqX8X%XD.R.D.D.C.D.D.F.D.D.F.D.D.D.D.K.K.K.D.K.(.(.(.(.(.K.S.L.9XqXqXqXSXMXMXMXSXMXMXFXFXSXHXSXSXFXFX",
"HXHXHXHXSXSXSXSXDXSXSXDXSXFXSXFXSXHXHXZXHXZXZXZXHXHXKXmXmXW.X.c.R.H.Y.U.`.U.`..XU.U.`.U.U.`.`.U.Y.U.R.R.(.(.[.(.(.(. XR.L.L.L.o.Q.mXMXSXFXSXKXMXFXFXHXFXBXFXFXFX",
"nXFXHXHXSXFXSXSXSXSXSXSXHXHXnXZXZXCXZXSXZXZXZXZXHXBXHXmXMX!.[ B.Z..XY.Y. X].Y.'.].`.`.`._.`._.'.R.R.U.U. X`.`.[.}.}.].U.Y.m.L.{ /.PXSXFXSXcXPXSXFXFXFXHXSXFXFXFX",
"HXFXFXFXSXSXSXSXxXSXnXnXbXZXKXfXIXCXCXSXSXHXSXMXNXNXdXNXsX!.J.C.G._._.].`.Y.'._._.{.{.{._._.{._.`.U.].U.Y.'.'.'.}.).{.`.Y.S.T.[ W.SXcXPXSXMXSXFXFXFXFXHXFXFXFXFX",
"BXFXFXFXSXSXSXSXPXSXHXHXVXnXHXHXDXSXDXDXSXDXSXMXNX0XP.P.!.I.D..XY._._.]._._._._._._.{.{._._.{.}.[.`.`.'.'.Y.Y.'.{.)..X`.R.C.S.z.Q.PXcXPXMXFXKXMXFXFXHXFXFXFXFXFX",
"FXFXSXFXSXDXHXAXPXfXMXBXNXdXNXNXFXSXSXSXDXSXSXBXBX9Xo.{ m.U.G._.(.[.{.[.[.`.`._._.[.{.{.}.}.}.}.}.}.{._.'.'.'.'.{.).{.[.(.K.K.n./.PXcXSXMXSXSXMXFXFXFXFXFXFXFXFX",
"MXFXSXSXSXHXSXZXKXbXHXHXBXBXNXNXBXFXBXKXFXFXBXmXBX9X{ L.m. X_..X`.[.`.[.`.`.`.`.`.(. X[.[.(..X}.}.}.}.{.{.'.{._.'.).[.(..XS.J.b./.PXMXFXMXFXFXFXHXFXFXFXFXFXFXFX",
"FXMXFXSXSXAXCXSXMXmXnX7X5X$X$X#X$X$X5X5X9X5X5X$X$X~.[ M.z.G.Y.{.F.G.D.G.D.G.D.D.F.D.F.F.F.F.(.(.}.}.}.(.[.[.{._.{.F.Y.S.J.z.' _ $.AXFXSXMXSXMXSXHXFXFXFXFXFXFXFX",
"FXFXSXSXHXSXHXHXKXKXBX~.} { L.L.z.z.M.b.A.v.v.] b.] ] b.m.T.U.S.S.S.A.C.C.A.A.m.S.A.S.S.S.G.D.K..X.X X(._.[.[.[.[.G.S.m.N._ 7 7 ` KXFXFXMXFXnXKXSXnXHXFXFXFXFXFX",
"FXFXSXSXAXCXHXFXmXmXNX~.m.G.T.C.I.I.I.R.K.K.J.B.B.v.z.z.z.K.E.E.A.B.m.m.n.n.n.b.n.m.m.m.m.m.J.J.R.U.R.(.).`._._.F.S.m.b.V.7 & & 9 HXFXHXHXKXbXKXZXSXSXFXFXFXFXFX",
"FXFXHXSXSXHXHXFXFXmXBX$X#XXXXXI.Z.Z.I.D.R.K.J.m.b.{ } } _ X.W.V.$.....X.$. .$. . . . .....V.V.V.J.D.I.Y.Y.Y.`.F.T.B.V...#.=     9 PXSXbXKXPXMXSXnXHXHXFXFXFXFXFX",
"BXBXBXSXSXSXSXSXSXHXHXBXNXNXiXT.I.I.Y.C.S.K.v.v.} _ * X $ v &.C c &.P Q Q C C Z ^ C @.O.@.O.+. .m.H.Z.Z.I.I.Z.m.N. .%.%.&., .   ` ZXbXKXPXxXPXSXFXFXFXFXBXFXHXHX",
"BXBXFXBXFXSXSXSXHXbXhXnXNXNXiXT.T.Y.I.S.K.J.' } { q     O r H H a p s p f i i i ,.N N B &.C C +.N.m.m.b.b.b.b.c.X.+.@.m m : O   v PXPXPXSXCXSXCXFXFXFXFXFXFXHXBX",
"BXBXBXSXSXSXSXSXMXhXhXVXNXNXiXB.I.R.Z.A.v.N.N.V.| 7 X   @ L Y W I I D H h h h h h h s M Z m c c +. .` |  .|  . .+.v Z Y ~ , . X 9 ZXPXSXxXPXSXSXFXFXFXFXnXFXHXHX",
"BXBXBXBXSXSXDXSXFXnXZXNXBXNXiXL.I.E.M.M.v.!.iXiXsXoX= . . y y Y F a a p p p p f N g B B ! C ^ C C @.O.O.%.%.+.+.O.v z M U ; . o 9 PXZXZXCXPXPXSXFXFXFXFXHXHXBXHX",
"BXBXBXHXHXSXSXSXSXMXZXnXBXHXiXB.I.E.m.M.' ..KXMXMX&X&   $ P L L U Y T T I D R I d n b b U Q c m V d n b L c P %.&.m T I L ;     0 HXnXKXbXfXSXxXFXFXFXFXFXBXZXBX",
"BXBXZXZXHXHXSXSXSXnXZXnXBXDXiXB.R.C.z._ 7 >.KXFXDX&X*   . v P ( L Q U U Y Y Y U ! ! ! ~ ^ &.^ / V V W T ~ &.&.&.^ m T T U , $   %.lXPXAXPXSXDXPXFXFXFXFXFXFXHXBX",
"BXFXHXnXCXHXSXSXFXMXHXnXBXBXiXV.T.T.%X8X7X=X-.:.;.9 & X # 3 , , < < < < < < < < < < < < < < < < 1 1 < , , 3 3 3 2 < 4 1 5 . .   q ;.Q.;.wXSXxXMXFXFXFXFXnXFXFXHX",
"FXBXZXkXZXHXSXSXFXHXHXBXBXBXiXV.B.J.qXNXBXfX    o . . X . . . . O . . O . . . . . . O . . . . . O . .   o   $   . . . . O . .       . . *XPXxXSXFXFXFXFXFXFXBXHX",
"BXFXZXnXkXZXFXFXMXMXHXMXmXKXqXX.N.N.8XBXBXeX$   # . # . . O . . . . # . .   o .     .   . @ . .           X   o   . . . .       o *   = *XZXPXMXFXFXFXFXFXBXBXHX",
"FXBXZXZXZXHXFXFXKXMXFXnXmXKXsX5XXX^.qXmXnXeX$ $ . . 3 3 # , @ ; @ . .       X       o     . . % % % - - q -     .   .   X X   X     o o &XFXSXSXFXFXFXFXHXHXZXHX",
"BXFXnXZXkXnXFXSXSXMXMXHXMXFXMXsXMXsXFXBXHXeX$   # 2 O.@.P ^ L P 0 . .   X X = X X X o .   . ; L L z x c ^ v ; . . .   X & & & X $     o =XPXDXSXFXFXFXFXFXBXHXBX",
"FXHXBXZXZXnXFXSXMXSXBXKXFXMXSXKXSXFXHXmXBXeX$   . 3 C &.z U y L r . .       X     X     . . ; L W D E Y / L : O . .   & & & X       X   &XbXfXFXFXFXFXFXHXFXZXBX",
"SXSXFXZXkXnXFXBXMXFXSXnXKXSXcXDXcXcXMXdXHXaX$   O 2 ! ! M E D T 5 @ O % .     X X     # + + : y i i h d h d : > ; . . X & &       $ o   =XPXPXxXFXFXFXFXFXFXHXHX",
"MXSXnXZXZXZXFXFXSXKXnXbXHXKXSXSXDXPXKXMXBXaX=   . 2 m b d g p p b t l l @     o     . 5 c t y R G i ,.h V N j u y < # X & &     %.wXaXwXfXSXMXPXFXFXFXFXBXHXBXHX",
"SXSXBXZXnXnXHXBXSXFXFXbXCXZXDXCXIXgXbXNXBXaXq   O 2 Y g h J h f H Y Q Q @ . . . . . . r ( Y E g p p V V B W a D ~ 5 # X &   .   0 CXPXPXPXDXbXMXFXFXFXFXBXFXHXHX",
"SXMXSXnXZXHXHXFXMXMXHXKXCXZXHXSXAXIXnXHXHXpX= X . 5 ~ E g J h i d s Y Y : + . . O + O 2 Y n N d h s V V E T j K T 4 O . . .     9 PXxXCXCXDXPXMXFXFXFXFXFXHXFXFX",
"FXFXFXHXHXFXFXFXFXFXFXFXHXFXHXSXSXPXbXMXHXaX= X   - 3 5 w y g W H H s d u e w w w e e y Y Y n I p f s R R g W p s u w 2 k .     8 KXSXSXZXSXSXHXSXSXSXSXSXKXSXFX",
"FXFXFXFXFXFXFXFXFXFXFXFXFXFXFXFXKXBXPXCXZXaX=   X     . > z Y N p f g s s s g H E I n I I a d s R g s R s s J p f f d U &.3     8 KXSXHXSXSXHXSXSXSXSXSXSXSXSXSX",
"FXFXFXFXFXFXFXFXFXFXFXFXFXFXFXFXMXaXPXSXPXfX$   X =   . O y I s s g g H H R R W I s n I I n I / I U b Y I a / p g R E Y &.; .   8 KXCXSXSXKXSXSXSXSXSXSXSXSXSXSX",
"FXFXFXFXFXFXFXFXFXFXFXFXFXFXFXFXPXMXDXbXbXaX#.#.9 q   . O x E R H g H g s s s p I D s p s I s u t l l x l y Y E R R s b L @ . o 8 PXHXHXKXSXSXHXKXDXSXSXSXSXSXSX",
"FXFXFXFXFXFXFXFXFXFXFXFXFXFXFXFXMXFXMXSXPXPXbXPXHXoX. # + m b d g s s s s s g s R R R s s W d > O O O O O > t b a D I Y ^ ; . . 8 PXSXSXHXDXHXSXFXSXSXKXSXSXSXSX",
"FXFXFXFXFXFXFXFXFXFXFXFXFXFXFXFXmXKXxXbXxXfXFXKXPX;.  . O z Y N s g p f H H R H d p g f s <.d > O . . . O + y / a n D Y ^ ; . . 9 PXSXZXSXHXSXSXSXSXSXSXSXSXKXSX",
"FXFXFXFXFXFXFXFXFXFXFXFXFXFXFXFXMXKXPXPXSXKXHXMXPX3.  % O z n R N s s s g g f p R h J H j g d > + O . O O > t a n g a b U ; . . 8 PXCXSXSXPXSXHXSXSXSXSXSXSXSXSX",
"FXFXFXFXFXFXFXFXFXFXFXFXFXFXFXFXKXfXPXxXbXPXnXMXPXQ.  . O m Y s I s s s g g g p g j g W d N R u t v l x t l E I s R a I ^ ; .   8 PXHXHXFXKXHXSXSXSXSXSXSXSXSXSX",
"FXFXFXFXFXFXFXFXFXFXFXFXFXFXFXFXFXBXSXHXDXKXHXMXPX-.  . O z Y N s D g s g g g f p h f p s I R R U I U I b Y R R f g a b ^ ; .   8 KXSXHXSXHXSXSXSXSXSXSXSXSXSXSX",
"FXFXFXFXFXFXFXFXFXFXFXFXFXFXFXFXFXFXSXHXHXZXHXbXKX-.  . O z Y g I s n H g f f f g H H s s s a y I I b n n p p f f g s I ^ @ .   8 PXSXHXSXSXSXKXSXSXSXKXSXSXKXSX",
"FXFXFXFXFXFXFXFXFXFXFXFXFXFXFXFXHXHXFXHXHXHXHXbXPX-.  . O z E n s n g s g g h f s p s R Y Y Y Y s s a s s H g h f g s b ^ @ .   8 PXCXHXSXSXSXSXSXSXSXSXSXSXSXSX",
"FXFXFXFXFXFXFXFXFXFXFXFXFXFXFXFXHXFXFXSXSXFXFXnXKX-.  . O z M R n D s H g H f g H p s Y U L z L a a s n D s s p f g d n ^ @ .   8 PXSXSXZXPXHXSXSXSXSXSXSXSXSXSX",
"FXFXFXFXFXFXFXFXFXFXFXFXFXFXFXFXHXFXSXHXHXHXZXnXPX-.  . O z Y s D s s H g g g g H I I Y ~ Q ^ ^ / / ~ / Y Y D g f f s I ^ ; .   8 PXSXHXSXHXSXFXSXSXSXSXSXPXSXSX",
"FXFXFXFXFXFXFXFXFXFXFXFXFXFXFXFXHXSXSXHXDXHXSXnXKX-.  . O z E R D n s H g g g g p n I y t l l c k l l r r y b R s s s b ~ ; . . 9 PXCXHXHXHXSXKXSXKXSXSXSXSXSXSX",
"FXFXFXFXFXFXFXFXFXFXFXFXFXFXFXFXHXFXSXKXSXHXFXMXPX-.. . O z I N s D s s g g G g R E b 1 + O . O . . O . O : r b s s s s ~ : . . 8 PXHXHXSXDXSXSXSXSXSXSXSXSXSXSX",
"FXFXFXFXFXFXFXFXFXFXFXFXFXFXFXHXHXFXSXSXSXFXMXnXKX-.X . O z I g g N g f f g g s a E b 1 O O O . . . . . O ; t / s N s b Y : O . 8 PXHXSXSXKXFXPXSXSXSXSXSXSXSXSX",
"FXFXFXFXFXFXFXFXFXFXFXFXFXFXFXHXZXZXSXSXSXSXFXnXZX3.* * O z H G g g f S G g N I I R a 1 + O O O .   o . O > t E g W s Y Y : O O 0 HXfXSXFXCXSXPXSXSXSXSXSXSXSXSX",
"FXFXFXFXFXFXFXFXFXFXFXFXFXFXHXHXkXZXSXSXSXSXMXnXPX;.* * O z D G g g i i f g n M I T D y t z x c v l l l t d n N h W n z ~ : + . %.PXKXKXSXSXDXxXSXSXKXSXSXSXKXSX",
"FXFXFXFXFXFXFXFXFXFXFXFXFXFXSXHXHXHXSXSXSXMXMXnXPX-.& & O z D H N h g G p G g n d p s a n E ! m ~ P Q T E R N d s n B Y ^ @ O . 0 BXPXSXMXSXPXMXSXSXSXSXSXSXSXSX",
"FXFXFXFXFXFXFXFXFXFXFXFXFXFXFXFXFXSXSXFXSXDXFXbXPXQ.  . + x Y R n B g s G f f s R I N n N N N s I I a s N R h g N n m ^ v @ .   +.fXPXKXxXSXPXSXSXSXSXSXSXSXSXSX",
"FXFXFXFXFXFXFXFXFXFXFXFXFXFXFXFXHXFXHXHXDXSXHXbXPXQ.  . O x B M B M E n D f S f g V B V N h h g D D G p p f f g B y 1 k 5 :.-.&X*XSXPXDXSXSXSXSXSXSXSXSXSXSXSXKX",
"FXFXFXFXFXFXFXFXFXFXFXFXFXFXFXFXFXFXCXAXSXSXCXbXMXr.o . + c ! B M M M N s S S G s M Z M M s H G p G H H i p g g n t + . $ wXPXHXMXPXSXMXSXPXMXSXSXSXSXSXSXKXSXSX",
"FXFXFXFXFXFXFXFXFXFXFXFXFXFXFXFXFXFXZXHXSXDXZXkXSX3.* . O c B M M M B M F S i p V @.@.Z Y n D D p I R W E R I Y ~ l O .   0XPXbXPXSXMXxXSXPXMXSXKXSXSXSXSXSXSXSX",
"FXFXFXFXFXFXFXFXFXFXFXFXFXFXFXFXSXFXHXSXDXSXSXhXlX=.X # + c Y N B B B B p S S p M c c C L y y u z y y y y z z l c k 0 0 0 0XKXHXMXxXPXPXSXSXxXPXSXSXSXSXSXSXSXSX",
"FXFXFXFXFXFXFXFXFXFXFXFXFXFXFXHXbXFXKXSXDXDXSXuXtX3.$ . + C Y D N N V E g G F u > O + + O . . . . O O . O O O . . =.PXjXDXFXBXBXFXSXSXSXSXSXSXSXSXSXSXSXSXSXSXSX",
"FXFXFXFXFXFXFXFXFXFXFXFXFXFXSXnXnXHXSXSXSXDXSXuX>X) . . O v E J h h V N f G F y # # o . . o $ $ .   . . . . . .   :.PXCXSXxXBXPXFXSXSXSXSXKXSXSXKXSXSXSXSXSXSXSX",
"FXFXFXFXFXFXFXFXFXFXFXFXFXFXSXBXnXHXSXSXDXDXCXrX,X2.  @ > C a j h h V V F F F y O #   $ $ $   X X X X X   X     o :.fXSXPXSXMXSXSXSXSXSXSXSXSXSXSXSXSXSXSXSXSXSX",
"FXFXFXFXFXFXFXFXFXFXFXFXFXFXFXFXHXMXMXSXDXDXCXrXj.2.6 . O c F J h h V B S D T l O . $ 3.y.*X-X0X6X6X6X6X6X6X6X6X=XwXFXbXPXHXSXSXSXSXKXSXSXSXSXSXSXSXSXSXSXKXSXKX",
"FXFXFXFXFXFXFXFXFXFXFXFXFXFXFXFXBXFXMXSXDXDXbXrX>Xd.;X6 + m F S f h N N p H U x 3 . . r.,X,XAXPXHXKXHXKXKXHXKXKXPXKXPXMXSXFXSXSXSXSXSXSXSXSXDXSXSXSXSXSXSXSXSXSX",
"FXFXFXFXFXFXFXFXFXFXFXFXFXFXFXBXFXFXZXZXDXPXkXtXe.l.,X% O m W S f g V N F D U v O . A e.l.>XlXvXSXMXSXBXSXnXnXBXaXfXnXHXPXHXSXSXSXSXSXSXSXFXKXSXSXSXSXSXSXSXSXSX",
"FXFXFXFXFXFXFXFXFXFXFXFXFXFXFXSXBXFXkXzXDXPXlXtX,Xj.d.6 > r D G G h N N p I C v O 1 r.k.a.d.yXvXDXCXCXCXCXCXSXnXKXPXHXnXbXbXHXPXSXSXSXSXSXSXSXSXSXSXSXKXSXSXSXSX",
"FXFXFXFXFXFXFXFXFXFXFXFXFXFXFXMXFXHXZXzXDXDXZXyXtX,Xj.e.r.A y H s g E n F H C x + > 4.k.u.f.jXDXDXDXDXSXHXHXFXZXBXHXMXFXFXSXSXMXKXSXSXSXSXSXSXSXSXSXSXSXSXSXSXSX",
"FXFXFXFXFXFXFXFXFXFXFXFXFXFXFXFXFXSXHXZXZXAXFXSXlX:X4.<Xe.S T u N N M ! I L z x + + 4.k.3XlXMXMXSXSXFXSXKXFXFXFXFXFXFXFXFXFXFXFXFXFXFXFXFXFXFXFXFXFXFXFXFXFXFXFX",
"FXFXFXFXFXFXFXFXFXFXFXFXFXFXFXFXFXFXFXnXhXZXFXSXPX=.6 u.f.K T 1.( <.*.*.*.( *.~ 1 4 4.k.tXPXKXBXHXHXFXFXFXFXFXFXFXFXFXFXFXFXFXFXFXFXFXFXFXFXFXFXFXFXFXFXFXFXFXFX",
"FXFXFXFXFXFXFXFXFXFXFXFXFXFXFXFXFXFXFXFXZXZXSXSXDXlX3X<Xg.<XtXtXuXyXjXjXyXlXjXyX2Xh.p.<XyXAXBXdXBXFXFXFXFXFXFXFXFXFXFXFXFXFXFXFXFXFXFXFXFXFXFXFXFXFXFXFXFXFXFXFX",
"FXFXFXFXFXFXFXFXFXFXFXFXFXFXFXFXFXFXFXBXFXFXZXZXDXAX3X>Xg.g.<XyXjXjXjXgXkXAXPXyX<Xa.u.l.1XhXKXHXFXFXFXFXFXFXFXFXFXFXFXFXFXFXFXFXFXFXFXFXFXFXFXFXFXFXFXFXFXFXFXFX",
"FXFXFXFXFXFXFXFXFXFXFXFXFXFXFXFXHXHXSXSXMXFXZXkXxXPXgX:Xg.k.<X3XjXDXSXSXSXDXHXkX<Xj.d.3XVXFXHXmXFXFXFXFXFXFXFXFXFXFXFXFXFXFXFXFXFXFXFXFXFXFXFXFXFXFXFXFXFXFXFXFX",
"FXFXFXFXFXFXFXFXFXFXFXFXFXFXFXHXZXZXBXSXFXBXkXkXvXDXDXyX,Xg.j.tXyXIXAXAXAXZXzXrX<Xj.3XtXZXKXBXmXBXFXFXFXFXFXFXFXFXFXFXFXFXFXFXFXFXFXFXFXFXFXFXFXFXFXFXFXFXFXFXFX",
"FXFXFXFXFXFXFXFXFXFXFXFXFXFXFXHXZXZXSXSXSXBXZXZXDXDXvXuX2Xg.g.g.3XtX2XtX2X2X3X<Xl.d.3XzXgXPXnXPXFXFXFXFXFXFXFXFXFXFXFXFXFXFXFXFXFXFXFXFXFXFXFXFXFXFXFXFXFXFXFXFX",
"FXFXFXFXFXFXFXFXFXFXFXFXFXFXFXHXZXCXSXSXBXSXnXHXvXPXDXjX3Xu.h.a.j.<Xk.j.j.j.l.l.u.u.tXHXZXPXfXKXHXFXFXFXFXFXFXFXFXFXFXFXFXFXFXFXFXFXFXFXFXFXFXFXFXFXFXFXFXFXFXFX",
"FXFXFXFXFXFXFXFXFXFXFXFXFXFXFXHXZXZXSXFXBXFXFXFXSXSXvXIXlX2Xk.w.s.p.p.q.p.p.w.w.h.2XlXvXZXIXbXHXFXFXFXFXFXFXFXFXFXFXFXFXFXFXFXFXFXFXFXFXFXFXFXFXFXFXFXFXFXFXFXFX",
"FXFXFXFXFXFXFXFXFXFXFXFXFXFXFXSXDXHXSXHXFXFXMXBXBXSXSXDXjXtXk.s.9.9.5.5.0.5.8.8.k.tXDXvXSXZXSXSXFXFXFXFXFXFXFXFXFXFXFXFXFXFXFXFXFXFXFXFXFXFXFXFXFXFXFXFXFXFXFXFX",
"FXFXFXFXFXFXFXFXFXFXFXFXFXFXFXSXSXHXHXHXHXFXSXMXSXHXCXSXSXyX<Xw.9.5.6.7.5.6.8.8.<XjXDXvXSXDXSXSXSXFXFXFXFXFXFXFXFXFXFXFXFXFXFXFXFXFXFXFXFXFXFXFXFXFXFXFXFXFXFXFX",
"FXFXFXFXFXFXFXFXFXFXFXFXFXFXFXSXDXSXFXZXZXHXMXFXnXnXZXDXDXkX<Xl.q.5.7.5.7.7.8.w.4XjXDXSXSXSXSXDXSXFXFXFXFXFXFXFXFXFXFXFXFXFXFXFXFXFXFXFXFXFXFXFXFXFXFXFXFXFXFXFX",
"FXFXFXFXFXFXFXFXFXFXFXFXFXFXFXSXSXSXZXZXHXFXBXMXZXnXCXSXDXIX4Xd.p.q.0.0.0.0.0.i.4XyXDXMXhXkXFXDXSXFXFXFXFXFXFXFXFXFXFXFXFXFXFXFXFXFXFXFXFXFXFXFXFXFXFXFXFXFXFXFX",
"FXFXFXFXFXFXFXFXFXFXFXFXFXFXFXSXSXDXCXZXFXFXBXBXZXZXnXSXDXkXrX;Xi.p.p.p.p.p.a.f.4XyXKXnXkXkXSXDXSXFXFXFXFXFXFXFXFXFXFXFXFXFXFXFXFXFXFXFXFXFXFXFXFXFXFXFXFXFXFXFX",
"FXFXFXFXFXFXFXFXFXFXFXFXFXFXFXSXDXSXZXCXFXBXBXnXnXZXFXSXCXIXeX3Xj.f.g.g.h.g.:X1XuXkXBXVXhXZXvXSXSXFXFXFXFXFXFXFXFXFXFXFXFXFXFXFXFXFXFXFXFXFXFXFXFXFXFXFXFXFXFXFX",
"FXFXFXFXFXFXFXFXFXFXFXFXFXFXFXSXDXDXCXAXFXBXBXnXhXZXKXSXZXlXPXIX:Xf.t.f.f.t.1XlXhXHXNXVXnXKXDXvXSXFXFXFXFXFXFXFXFXFXFXFXFXFXFXFXFXFXFXFXFXFXFXFXFXFXFXFXFXFXFXFX"
};
