/* XPM */
static char *_d080d9b72e34c2babc6f8a3b518c9ab2kAPzli4M4DfolCu[] = {
/* columns rows colors chars-per-pixel */
"80 80 242 2 ",
"   c #070708",
".  c #170C0A",
"X  c #0B150E",
"o  c #18150D",
"O  c #0C0D12",
"+  c #140D14",
"@  c #0E1215",
"#  c #0B1915",
"$  c #141514",
"%  c #1C1413",
"&  c #141A14",
"*  c #1B1B15",
"=  c #14151A",
"-  c #1A151A",
";  c #151A1C",
":  c #1B1C1C",
">  c #280B04",
",  c #221C1A",
"<  c #261817",
"1  c #361B16",
"2  c #34180B",
"3  c #14231C",
"4  c #1D231D",
"5  c #172617",
"6  c #0D2216",
"7  c #23231D",
"8  c #2A241C",
"9  c #28281A",
"0  c #36271C",
"q  c #24331D",
"w  c #38321C",
"e  c #2F230D",
"r  c #1C1D23",
"t  c #1A1722",
"y  c #231D23",
"u  c #231E2B",
"i  c #1D2323",
"p  c #1E2927",
"a  c #1D3426",
"s  c #1E3334",
"d  c #232424",
"f  c #2A2424",
"g  c #242A25",
"h  c #2B2B25",
"j  c #23242A",
"k  c #2C242A",
"l  c #252A2B",
"z  c #2B2B2C",
"x  c #322424",
"c  c #3B2522",
"v  c #332A24",
"b  c #3C2A23",
"n  c #332C2B",
"m  c #392C2C",
"M  c #23342B",
"N  c #2C332C",
"B  c #273827",
"V  c #33332E",
"C  c #383527",
"Z  c #2C2C33",
"A  c #282833",
"S  c #322C33",
"D  c #372C35",
"F  c #2D3233",
"G  c #2B3B32",
"H  c #283734",
"J  c #333433",
"K  c #343B34",
"L  c #3A3B33",
"P  c #33343A",
"I  c #353A3D",
"U  c #3A3B3B",
"Y  c #3C3636",
"T  c #46271A",
"R  c #47321D",
"E  c #4E3510",
"W  c #452B24",
"Q  c #44322C",
"!  c #433A2C",
"~  c #483727",
"^  c #563928",
"/  c #473A36",
"(  c #543C36",
")  c #472D2D",
"_  c #653B25",
"`  c #623731",
"'  c #411F15",
"]  c #2B4332",
"[  c #2E4739",
"{  c #33443C",
"}  c #3C443C",
"|  c #384737",
" . c #38543C",
".. c #2B4830",
"X. c #5B452A",
"o. c #4B433B",
"O. c #464739",
"+. c #564836",
"@. c #4A4D36",
"#. c #66442A",
"$. c #75472C",
"%. c #694837",
"&. c #754A36",
"*. c #69533A",
"=. c #785439",
"-. c #78532C",
";. c #76623C",
":. c #383B41",
">. c #443B40",
",. c #3B4443",
"<. c #3B4C43",
"1. c #3E4D4A",
"2. c #354743",
"3. c #3C5344",
"4. c #3B5846",
"5. c #2E4441",
"6. c #3D6348",
"7. c #4B4B45",
"8. c #444B4B",
"9. c #474947",
"0. c #574A45",
"q. c #43534C",
"w. c #4C544C",
"e. c #435B4B",
"r. c #485547",
"t. c #57564B",
"y. c #4A4D52",
"u. c #4B5C54",
"i. c #495855",
"p. c #565A59",
"a. c #524E51",
"s. c #634B44",
"d. c #694E44",
"f. c #675648",
"g. c #785747",
"h. c #685B55",
"j. c #765652",
"k. c #46634C",
"l. c #4C6354",
"z. c #4B6759",
"x. c #53645B",
"c. c #556959",
"v. c #54725D",
"b. c #59725B",
"n. c #5B624C",
"m. c #7B6546",
"M. c #666758",
"N. c #786659",
"B. c #676147",
"V. c #5A5C64",
"C. c #5A6B62",
"Z. c #586765",
"A. c #547264",
"S. c #5D7566",
"D. c #4E6863",
"F. c #656769",
"G. c #63796C",
"H. c #647869",
"J. c #6B6C72",
"K. c #6B7874",
"L. c #75787A",
"P. c #777269",
"I. c #855839",
"U. c #865A33",
"Y. c #8B653E",
"T. c #8B5744",
"R. c #856345",
"E. c #966748",
"W. c #997246",
"Q. c #916F57",
"!. c #A97653",
"~. c #977866",
"^. c #89726B",
"/. c #68856B",
"(. c #6D8875",
"). c #758A79",
"_. c #76947A",
"`. c #98875B",
"'. c #898579",
"]. c #9D8A7A",
"[. c #AF8D6F",
"{. c #AF8555",
"}. c #7B7E83",
"|. c #7A8586",
" X c #7D9B81",
".X c #6F8381",
"XX c #ff86878B",
"oX c #ff83998A",
"OX c #ff8B8E95",
"+X c #ff8C9596",
"@X c #ff96989A",
"#X c #ffAB9C96",
"$X c #ffB0988C",
"%X c #ff91A297",
"&X c #ffB7A494",
"*X c #ff999CA5",
"=X c #ff9CA5A8",
"-X c #ff9FB8A5",
";X c #ffA5A8A9",
":X c #ffA9ACB4",
">X c #ffADB4BA",
",X c #ffABB5B7",
"<X c #ffB3B5BC",
"1X c #ffB4BABD",
"2X c #ffBBBBBD",
"3X c #ffB9B5B7",
"4X c #ffB8AEA9",
"5X c #ffC5BBB6",
"6X c #ffC8BAAC",
"7X c #ffC0A89C",
"8X c #ffBCC1BD",
"9X c #ffD1C3BD",
"0X c #ffB3B7C1",
"qX c #ffB5BCC3",
"wX c #ffBABDC5",
"eX c #ffB5BDCA",
"rX c #ffBBBFC8",
"tX c #ffB9B7CA",
"yX c #ffB7BBCD",
"uX c #ffC1BEC4",
"iX c #ffC0BDCA",
"pX c #ffB6C1C4",
"aX c #ffBBC1C6",
"sX c #ffB7C1CB",
"dX c #ffBCC2CA",
"fX c #ffBEC9CB",
"gX c #ffBCC4D1",
"hX c #ffBDC9D3",
"jX c #ffC3C3C5",
"kX c #ffC2C4CC",
"lX c #ffC4C9CD",
"zX c #ffCBC6C8",
"xX c #ffD2CACA",
"cX c #ffC2C5D1",
"vX c #ffC4CAD2",
"bX c #ffCACCD3",
"nX c #ffC6CDD9",
"mX c #ffCCD2D5",
"MX c #ffC5D0D1",
"NX c #ffD7D5DA",
"BX c #ffCAD0CE",
"VX c #ffC7D3E3",
/* pixels */
"wXrXdXrXrXiXrXrXeXrXdXdXqXdXfX1XqXqXaXaXdXsXsXeXsXsXdXrXrXwXuXkXcXiXiXtXrXkXqXaXsX1X0XfXqXsXdXyXsXsXsXsXdXsXwXrXrXrXrXrXrXyXiXrXrXrXrXrXrXrXrXrXrXrXrXrXrXrXrXaX",
"dXdXwXwXrXrXrXeXcXqXeXfXpXqXpXaXlXkXjXaXdXdXgXhXeXsXrXkXdXaXuXrXiXtXrXbXeX<XfX1XeXyXpXqXdXdXqXdXdXsXsXsXdXrXrXrXrXrXiXrXrXiXiXrXrXrXrXrXrXrXrXrXrXrXrXrXrXrXrXrX",
"rXrXrXrXdXdXdXdXrXqXdXqXpXfXfX,X=X=X;XpXpX,X,XpXMXfXeXqXaXfXfXqXiXlXrXsXgXgXVXhXyXVXnXhXqXhXfXrXrXrXdXrXrXrXrXrXrXrXrXaXrXrXrXrXrXrXrXrXrXrXrXaXrXrXrXrXrXrXrXrX",
"rXwXrXdXdXqXwXdXrXdXfXfXfX1XOXx.,.2.1.i.p.i.i.x.G.|.,XaXpXqX1X0X<X>X,X:X0XtX*X:X:X*X*X*XnX0XdXqXrXiXrXiXrXrXuXrXrXrXrXwXwXaXdXrXrXrXwXrXrXrXrXrXrXrXrXrXrXrXrXrX",
"rXrXdXwXqXqXqXpXsXsXpX:X|.i.H s p H H a a 3.v./.e.2.H [ q.V.Z.V.1.{ q.t.7.m > < c ) x D XXsXgXyXiXiXiXiXiXrXrXrXjXaXaXpXpXpXpXpXwXjXrXrXaXwXrXrXrXaXrXrXrXrXrXrX",
"rXdXdXqXpXaXfXfXfX0X-X+XC.1.1.q.{ 6 X ] S._._._./.S.c.e.2.5.5.5.z.u.c.b.C Q g.d.2 T ' c k XXsXyXrXiXiXiXiXiXrXrXaXpXaXpXaXpXpXaXaXrXrXrXrXrXrXrXrXrXrXrXaXwXrXrX",
"rXrXwXqXdXlXpX,X-X|.K.G.K.L.S.i.[ H 3.H._.)._.'.(./.H.H.S.S.D.D.A./.H.@.e ^ [.[.%.> T b v i OXVXrXiXiXrXrXrXrXrXaXaXaXpXpXaXaX8XrXrXrXrXrXrXrXrXrXrXrXrXrXrXrXrX",
"rXdXaXqXaXpX-XoXC.2.a a p # 3 a 2.3.e.k.H._.'._._./.b.b.A.A.A.D.D.D.z.q e e R ~.[.g.> c Y Z :.=XrXrXyXrXrXrXrXsXsXpXaXaXaXaXaXpXaXaXrXrXrXrXrXrXrXrXrXrXrXrXaXrX",
"dXrXqXpXvX-XC.K.A.u.u.l.M B 4.C.S.S.x.S.c. .6.b._./.4.6.A.D.A.z.D.6.A.A.e.r.@.O.t.7.7 f k r V.iXaXdXaXqXvXeXrXhXsXsXrXeXrXkXrXqXrXrXrXrXrXrXrXrXrXrXrXrXrXrXrXrX",
"qXwXfXvX@XZ.C.S.H.z.q.] e.G.).z.[ <.[ [ k.k.c././._.(.6.z.A.6.A.D.A.A.4.4.(.K.3.G } M ; r p.nXiXpXfXdXaXsXeXeXrXsXsXgXtXeXrXiXiXrXrXrXrXrXrXrXaXrXrXrXrXrXrXrXaX",
"kXdXhX+XD.i.l.u.<.4.k._.-Xl.# a # ] 3.l.b.l.n.b././. X6...A.6./.A.D.z.s | c.e.r.r.t.K : y.3XuXwX3XjXaX1X1XcXcXrXdXyXgXrXrXrXrXiXaXrXrXrXrXrXrXrXrXrXrXrXrXrXrXwX",
"dXrX=X8.,.z.3.3.e.v._.oXc.3. . .S.G.C.u.l.b.S.b./.k.6...6.z././.A.S.4.6 | r.O.@.@.9 o o.5XzXuXxXzX4X5XjXzX1XuXiXrXrXgXrXyXtXiXrXrXrXrXaXrXrXrXrXrXrXrXaXrXrXrXrX",
"rXkX}.5.1.{ 4.l./.k././.4.c.(._.(.K.C.H 6 H <.B a a a v.oX_._.v.A.S.B 5 C +.f.N.X.> W &X#X^.t.t.f.0 T t.4XzXcXuXuXrXrXdXiXrXtXrXrXrXrXwXrXrXrXrXrXrXwXaXrXrXrXrX",
"gXdX*X8.1.<.e.k.6.l././.oX_._.).|.K.K.x.a i G q.k. .b. X(._._._.).D.5 9 9 +.Q.g.E 1 Q.^.N.! e o.W ' T T s.^.@XuXuXwXwXuXkXrXrXrXrXrXrXrXrXrXrXrXrXrXrXrXrXaXrXrX",
"sXsX,X1.[ 4.4. .b.b.(._._._.oX).G.1.M p i X ; u.C.x.b.v.oX_.(._.(.z.5 $ L h.h.x > d.j.^.h.~ ! f.~.T.#.` ^ 1 ) #XuXuX2XrXdXaXsXrXrXrXrXrXrXrXrXrXrXrXaXrXrXrXrXrX",
"0XnX;Xi.i.3.l.b.v././._._.(.e...i i ; ; A r & 9.J.l.4.z.k.v.k.| | } g 4 w./ u ) ^.( 0.( e e ~ X.E.Q.g.%.T / c ^.xXuXqXwXdXdXrXdXrXrXrXrXrXaXrXrXrXrXrXrXrXrXrXrX",
"fX1XpXZ.2.1.4.Z.S.S.H.b.3.] ..e.i d r y y % - >.i.{ G s a 3 6 B | @.4 [ q.J   j.7X%.[.[.`.;.;.=.X.^ X.C O.9 8 9 '.9XdXsXgXdXiXiXuXrXrXrXrXrXwXaXrXrXaXrXrXrXrXrX",
",XsXpXC.:.1.8.4.z.u.[ a ] k.S.G.u.$ - + . x % u g 3 u.6.s 3 & } r.} u.K.i.B t.'.g.E $.!.[.[.`.Q.;.*.! o v 8 0 0 O.4XaXtXeXyXuXuXrXrXrXrXrXrXrXrXrXrXrXrXrXrXrXrX",
"pXfXaX+Xi.5.5.q.G a M 3.l.c.v.S.J.g f , < x < - # u.|.l.a a N q.<.<.z.z.D.;XNX+.^ g.$.I.U.-.E E &.` ^ 0 ) c 0 0 t.5XkXhXgXgXuXuXrXrXrXrXrXrXrXrXrXrXrXrXrXrXaXrX",
"pXpXfXdX@Xi.H p H { 1.3.e.u.u.3.} g . % < . % % 7 +X(.B a B q.u.9.z..X.X|.+X2Xo.T ~.!.Y.U.-.U.I.I.I.` 1 T 1 1 T s.5XuXrXgXrXqXrXrXaXrXrXrXrXrXrXrXrXrXrXrXrXrXrX",
"qXqXwXsXcX*XK.1.i.q.1.{ { <.<.G w.V . % < . % % r.%X).x.H.x.w.L J D ,.H s 5.D.| 0 g.R.I.I.!.!.E.T.&.T > 1 1 1 W 0 ;XkX0XeXgXsXwXrXrXrXrXrXwXrXrXrXrXrXrXrXrXrXrX",
"dXrXdX,XvXfXfX:XC.u.2.2.2.<.q.u.c.7 < % . . . . * r.).K.w.| B 7 n O r 1.D.6.{ G 0 ~ &.&.I.I.T.&.` ^ 2 2 1 > 2 0 1 ^.jXwXfXgXsXqXrXrXrXrXrXrXrXrXrXrXrXrXrXrXrXrX",
"rXrXcXrXdXqXdXfXfX1X+XZ.<.2.q.8.a.f y < % % < , & & N B M K N 4 * z V.u.3.s G | q C *.d.%._ E R ^ v 8 9 % * e 8 8 a.<XqXhXeXeXsXrXrXrXrXrXrXrXrXrXrXrXrXrXrXrXrX",
"iXeXrXrXwXfXqXpXaXaXaXpX*XK.u.i.x.a.- % x + % - : d 4 l B 7 g h * L ,.6 B [ 4. .B 9 9 w w w X.w 8 5 5 q h C B o . 7.zXrXrXtXgXyXrXrXrXrXrXrXrXrXrXrXrXaXrXrXwXaX",
"rXiXrXrXrXrXrXrXsXqXqXaXfXfXpX1XkXjXp.+ y y + - r r j i l d i g 8 9 9 B  . .k.6.6.....a q B q q a B ..q q q q B 9 ;X9X8XqXkXyXcXcX0XdXqX0XkXdXrXrXrXrXrXrXrXrXwX",
"rXrXiXyXkXyXrXrXdXrXpXaXdXdXpXqXqXuX;X:.  - + - - t y ; ; j F f Q +.! L 6. . . .6.6.6.3. . .] ....a B ..@.n.t.@.C P.zX9X2XkXtXyXrX0XdXkXdXrX0XkXrXrXaXrXrXrXrXrX",
"rXrXrXrXrXrXrXrXrXrXsXrXdXdXrXrXbXiXiX:XV.u u u S y.P j j Z P S N.~.s.0 w .. .6.5.4.3.[ [ [ B G [ k.n.n.B.*.@.N.t.f.#X5XuX0XiXnXiXrXeXqXkXdX0XcXrXrXrXrXdXwXrXrX",
"yXiXyXiXrXrXrXrXrXrXrXsXqXeXdXdX0XiXtXbXiX:X<X<XtXNXJ.A :.P A :.N.^.d.^ @.@...B G [ H Z H M M  .F.n.@.X.*.*.*.~.;.*.N.].7X5XtXtXrXrXrX0XrXdXrXrXrXrXrXrXrXrXdXwX",
"kXrXrXrXrXrXrXrXrXgXsXsXrXrXsXdXtXcXcX:XrXnXrXbXtXcXa.+ :.:.A P ) 0.d.P.N.P.N.s.D D k A M p | F.t.! *.R.-.-.Y.R.*.%.Q.R.~.uXzXuXrXwXkXcXqXrXkXqXrXrXrXrXrXwXdXrX",
"rXrXrXrXrXrXrXaXrXrXsXrXrXeXrXsXvXtXrXhXsXrX0XqXzXiXJ.= u A :.:.D m D ( R ~ / c ) D k S j i 2.c.@.X.Q.!.U.U.-.Y.U.&.E.E.&.$XxXuXcXdXqXkXqXqXdXwXwXdXdXwXrXrXrXrX",
"rXaXaXrXrXwXaXrXeXsXrXeXsXrXyXdXrXdX0XdXdXqXbX1XtXkX@Xk A u Z A :.:.J J V h m z P Z A Z i i | 9.w *.;.W.{.{.U.$.Y.-.U.E._ g.$XOXOX0XrXqXrXrXdXrXrXrXrXrXdXrXrXrX",
"rXrXrXaXrXrXrXrXsXrXrXgXsXdXsXsXdXeXhXrXdXfX<XrXuXxXOXO r r p j u A A l I z Z z A A A s # i } ] q @.m.R.Y.W.Y.W.Y.U.E.-.#.d.s.) j ;XbXwXiXrXqXrXdXwXrXrXwXrXrXrX",
"rXrXwXrXrXrXrXrXrXwXrXrXrXrXrXrXyXgXgXcXtXwXkXjXwXmXF.r t r t j u A A S A u u A j r r r = @ l } C @.X.X.;.I.Y.R.E.I.=.` %.s.m k = y.uXwXjXrXbX0XiXiXrXrXrXdXeXdX",
"wXrXdXrXrXwXdXrXrXdXrXrXrXrXrXdXyXyXyXqXkXiX<X3XxX#X>.U F l i O t t r j u u u u ; y = + t @ $ V K v @.].#.X.$.$._ _ _ j.j.m x f k y a.wXkX3XtXkXrXrXrXrXsXrXdXeX",
"dXrXdXrXrXrXrXrXrXrXrXwXrXwXrXeXhXeXeXdXiXuX9XjX3Xh.8 0.a.o./ y u i ; : : : y ; = $ % O   : d     7.xX6X&XQ.#.*.g.*.%.X.W < < d z $ - }.cXiXuXiXyXrXrXrXrXsXaXsX",
"rXrXwXrXrXrXrXrXrXrXrXrXrXdXdXdXeXhXqXkX2X2XzX$X0.0.Q Q Q ( +.o.S j 7 * * $ $ o o $ $ L XX3XL.k J.wX2X8X9X9X&X~.m.%.^ w w C f 7 z y j - }.bXkXwXiXiXrXyXsXrXsXwX",
"rXrXrXrXwXrXdXwXrXdXwXrXrXrXrXqXeXhXpX,XjX5X'./ s.j.+.^ ^ T T R C C C 9 9 9 0 h 8 , h J.;XuX3XkXlXqXrXbX3X5X6X! w +.@.+.t.n.M.} z j z O V.kXrXrXrXrXrXyXdXrXdXdX",
"wXdXrXwXrXrXrXrXrXrXrXrXrXaXrXdXdXpXpXpXmX@XC / j.%.%.&.g.%.$.` R R R W ~ w ~ m C m v % x #XzX1XyXgX0XqXzX;Xh +.N.@.@.n.^.'.M.K U S ; t *XbX0XkXyXiXrXrXrXrXwXaX",
"rXrXrXrXrXrXrXrXrXrXrXrXrXrXdXqXhX1XpXjX>Xh.8 f.d.g.Q.*.%.&.=._ $.$.%.&.&.d.%.0.( 0.v x F.5XqXkXcXeXcXcX;XN | ).P.q M.'.P.r.5 9.9.:.d I iXuXqXcXdXrXrXrXrXrXdXrX",
"rXwXdXrXdXwXrXdXwXrXdXwXrXrXrXdXpXfX1X8X^.V / ~ f.^ ( *.Q.T.=.=.$.$.&.&.T.g.d.d.Q m x f y.qXvXyXiXgXsX@XG 9.F.t.| q | @.r.p.7.9.9.S p.<XiXkXrXqXdXrXyXkXrXrXrXaX",
"rXrXdXrXrXdXrXrXrXrXrXrXrXrXwXrXsXqXtX0X/ n / 0.N.h.*.R +.g.g.%.&.&.T.g.g.` ~ b b / Y :.p y.0X|.:.:.8.g w.u.} | O.| B V U U U K 9.XXkXlXwXrXiXrXrXdXrXrXrXaXaXaX",
"rXrXwXrXrXwXrXrXdXwXwXrXwXdXdXrXrXsXbXOXk u V o.o.0.s.~ ~ X.+.+.( %.` ^ T 0 W Q Y n k j = @ :.:.r * 9.w.t.G | C.u.r.{ N N U p.J.<XjXkXwXqXdXkXqXrXrXrXrXrXrXaXaX",
"rXwXrXrXrXwXwXdXrXrXrXrXrXrXrXrXrXcXuXa.j S k f v ! o.v m C ! Q C C Q / O.o.L n z : y : p t r :.z h L | U { } } K N G y.}.:XiXkXaXaXaXaXkXdXrXeXrXrXrXrXaXwX8XwX",
"rXdXrXrXdXrXrXrXrXdXwXrXrXrXrXrXrXcX*XA Z U j r z h V n 7.t.t.O.t.O.O.| C 4 & 4 i p z r A l A 8.N 7 * g K K l 4 I J.;XfXkXiXkXkXaXqXaXdXwXqXrXcXrXrXrXrXaXaXaXaX",
"dXwXrXdXrXrXrXrXrXrXrXrXrXrXwXrXtXcXXXr Z S j j t = r = k z S Z 4 4 N r.q.K j d d l F d l j z d h B h * & d 8.|.wXcXcXsXwXqXtX0XlXdXpXqXrXrXrXrXrXrXrXrXwXaXaXwX",
"eXrXrXwXrXwXrXrXdXwXwXdXrXrXrXdXiXbX}.i Z A j u r r u @ = = $ t z M l S :.8.8.,.I z d l z i N : h N } J p.*XaXmXqXrXrXrXrXkXcXkX0X0XqXaXdXcXgXqXrXrXrXrXaXaXaXaX",
"aXrXrXrXrXrXrXrXrXrXrXrXrXrXwXaXkXjX@XP A j r r r t t O t t t r f S S u f S >.a.a.J n F h * h 7 5 J =XwXdXkXwXqXgXrXrXrXrXrXrXqXdXfXfXwXqXqXrXcXrXrXrXrXwXaXaXwX",
"rXrXrXrXrXrXwXdXrXrXrXrXwXdXdXaX2XaXkX8.l r r j r t r @ t + @ r u k S D S k S Y 7.U 7.O.K d h z Z 4 ;XlXwXrXiXeXgXrXtXrXhXdXeXrXdXqXqXdXdXrXrXrXrXrXrXrXaXaXaXaX",
"rXdXrXrXrXrXrXrXdXwXrXrXrXrXrXwXuX3XbXJ.y j $ d ; = $ @ $ ; ; t = O A Z D Z Z d 7 | } | K N g z g J l L.bX2XaXrXrXrXrXyXdXyXdXdXrXrXrXrXrXwXrXrXrXeXwXdXrXaXrXaX",
"rXwXwXrXwXrXrXrXrXrXrXrXrXrXrXaXkXwXuX;X: K g $ : 5 : ; ; ; = # D.i.t j A S S d 7 G K M g g l z l J i N lXjXwXkXdXwXrXrXrXrXrXrXwXdXrXrXrXdXrXdXwXdXdXwXrXrXrXrX",
"rXwXdXrXrXrXrXrXrXrXrXaXrXwXrXrX0XzXwX>XP J P l g p i d p r ; 3 1.y.; A A S f , V O.O.V N N z l d K g z ;XlXqXrXrXwXdXrXrXrXrXrXrXrXrXrXrXdXrXwXrXrXrXrXwXrXrXwX",
"rXrXrXrXdXwXrXrXrXrXrXrXrXdXwXaXaXuXjXzXp.d f N h 4 p d p i i j r r y r y u y m Y 7.t.o.L V z g : J g J ;XkXwXwXrXrXrXrXrXrXrXrXrXrXrXrXrXwXrXrXrXrXrXwXrXdXrXrX",
"rXdXrXrXrXrXwXdXrXrXrXrXrXrXrXaXkXqXjX1XI U I i d i i i p ; ; i j - y d r y f m 8 ) 0.o.L V l p 4 p @ d aX2XrXjXrXrXrXrXyXrXrXrXwXrXrXwXwXrXrXwXdXwXrXrXrXwXrXrX",
"rXwXwXdXrXrXrXrXrXrXrXrXrXrXrXaXqX1XlX;Xp.,.J l d p i d p 4 3 : , , - U z : n < 1 W ( 0./ C B g g & 4 F.aXaXkXaXrXdXyXrXkXrXrXrXrXrXdXrXdXrXrXdXrXrXrXwXrXdXdXwX",
"rXrXrXrXwXrXrXrXrXrXrXrXrXrXrXaXkX1XjXlXaXV.d F g p i p i i ; ; & * $ z P f D c c c ( s.7.L N a d 4 c.5X2XaXkXqXrXrXyXkXyXrXrXrXrXrXrXrXrXrXrXrXrXrXrXdXrXwXdXrX",
"rXrXrXrXdXrXwXdXrXrXrXrXrXrXrXrX1XlX1XqXaXaXL.g p i r & & r i ; , . f d p.I n x 1 1 W s.+.L M a p g OXmXBXqXaXjXrXrXrXrXdXrXrXrXdXwXrXdXwXrXrXrXrXrXrXrXrXrXrXrX",
"rXrXrXrXrXrXrXrXrXrXrXrXrXrXrXrXpXaXdXpXaXfXqX>XZ.: j F d & : : 8 . 7 4 oX:XV v x T 1 c ! r.a B M N J p.;XrXrXiXkXrXcXrXrXrXrXrXrXrXrXrXrXrXrXrXrXrXwXrXrXrXrXrX",
"rXrXrXrXrXrXrXrXaXrXrXrXrXrXwXrXaXdXqXqXaXaXlXkXlXJ.l i F : : & o * X & @XlX;XO./ 0 c v L O.] B M 4 d @ $ L.bX0XrXrXrXrXyXkXrXdXdXwXwXdXwXrXrXrXrXrXdXrXrXdXwXrX",
"rXwXrXrXrXrXrXrXrXrXrXrXrXrXaXrXqXqXaXdXaXaXqX1XkXlXL.$ h z * f X o 5 p %XMXjX;X8 m f / 7 h G 4 N g l l = l +XmXwXrXrXrXrXkXrXrXrXrXrXrXrXrXrXrXwXrXdXrXwXdXrXrX",
"rXaXrXrXaXrXrXrXrXrXrXrXrXrXaXrXfXaXqXaXaXaXjXdX<XzXNXF.: f : 7 , o #   K.mX1X9X7.a.7.t.9.x.G M : N i = l   y.bXqXrXeXrXgXyXrXrXrXdXwXrXrXrXdXwXrXrXwXrXrXrXrXrX",
"rXrXrXrXrXrXrXrXrXrXrXrXrXrXrXrXwXaXaXwXrXrXtXrXkX3X0X7.  , f f $ 5 & @ l V.>XbXXXd w.N } 7.g K g h $   p = y.vXrXtXrXrXrXrXrXrXrXrXrXdXdXrXwXrXrXrXrXrXrXrXrXrX",
"rXrXrXrXaXrXrXrXrXrXrXrXrXrXrXrXqXaXfXrXrXiXkXcXNX0XJ.+ $ f 7 % 7 o O d p   XXmX=X3 g O.7.J z j d ; & i j $ :.dXrXrXrXkXrXrXrXrXrXrXrXwXrXrXrXrXdXwXrXrXrXrXdXwX",
"rXrXaXrXrXrXrXrXrXrXrXrXrXrXrXrXkXfXeX0XrXcXrX:XV.k + y f , 8 & * * : = d @ }.aXMX).3 p N z Y k 4 F K d r r j >XdXdXyXrXyXrXrXrXwXrXrXrXwXrXdXrXdXqXrXrXrXrXdXrX",
"rXrXrXrXrXaXwXrXrXrXaXrXrXrXrXrXqXrXrXfXzX<XJ.Z r t k , d f y f 4 * O - O S :XkX1XMX@XN z z % f f d V Z ; u = OXfXkXrXrXrXrXrXrXdXrXrXrXrXrXwXrXrXdXrXrXwXrXrXrX",
"rXrXrXrXrXrXrXrXrXrXrXrXrXrXrXaXwXjX2X1XJ.1.t r j l r r j l j i # O i M P }.jXwXwX3XbX3Xa.y x < % x m f d z   J.vXqXvXqXsXkXtXdXrXrXdXrXrXrXdXrXwXrXrXrXwXdXrXwX",
"rXrXaXrXrXrXrXrXrXrXrXrXrXrXaXwXwX1XmX}.Z p I H p j p p t O O @ :.).:X1XfXvXrXrX2XzX0XwX2Xa.k f x < y m f f $ 9.kX>X1XdXrXrXcXrXdXwXwXrXrXwXwXrXdXrXrXrXrXrXrXrX",
"rXrXrXrXrXrXwXaXrXrXrXrXrXrXrXaXaXlX@X@ = p @ r p @ @ i P 8.C.XX:XmXlX>XdXqX<XbXkX3XzXuXzXuXY f < < < n n d d i ,XmXvX0XgXrXeXtXrXwXdXrXrXrXrXrXrXrXrXrXrXrXrXdX",
"rXrXrXrXrXrXrXrXrXrXrXaXrXaXrXrXaXaXaX|.P :.I Z r P V.*XqXdXfXvXpXaXqXqXdXaXqX<X0XcX<XuXjXqX3XY < < % < n d f ; 8.@XlX<XrXrXrXiXrXrXrXrXdXrXrXrXrXrXrXrXwXdXrXwX",
"aXwXrXrXrXrXrXrXaXrXrXrXrXrXrXrXqXkXwXbXdXkXqX>X;X>XkXbXkXwXqXaXkX1XwXkXrXdXcXkXtXwXkXwXuXjXjX;X/ < o . f z d d O l <XbXiX<XcXwXdXwXrXdXwXrXrXrXrXrXrXwXrXrXqXdX",
"rXrXrXrXrXrXrXaXwXrXrXrXrXaXrXrXkXqX<XkXqXqXbXfXkXkXfXqXqXqXfXkXaXaXwXwXrX0XqXrXkX1XrXcX1XkX<XNXP.o . o , h f y r ; ;XvXrXwXkX1XrXrXrXwXrXrXrXrXrXwXrXdXrXrXdXrX",
"rXrXrXrXrXrXrXrXrXrXrXrXrXrXrXrXkXqXdXkXqX0XvX<XrXrXrXrXcXkXrX<XdXrXtXeXcXcXgXcXbX>XrXqXdX1XlXaXF.% % < , f 7 : r r |.2XwXuXrXwXrXrXrXrXwXrXrXwXrXrXrXrXrXrXrXrX",
"rXaXrXrXrXrXrXrXrXrXrXrXrXrXrXrXaXdXdXqXkXkX0XdXrXrXdXrXwXrXdXdXiXqXrXcXeXqXiXeX0XnXrXhXqXqXaXjX) < < & , d * r f   V.bXuXrXuXrXrXwXrXrXdXrXrXdXrXdXwXrXdXwXrXrX",
"rXrXrXrXrXrXrXrXrXrXrXrXrXrXrXrXrXrXrXrXrXrXrXrXrXrXrXyXdXrXrXyXrXrXrXrXrXrXdXsXeXeXfXqXhX0XvXXXf , , o z f % z : V.kX3XiXwXuXiXrXdXwXrXrXrXwXrXrXdXrXrXrXrXrXrX",
"rXrXrXrXrXrXrXrXrXaXrXrXrXrXrXrXrXkXyXrXrXrXrXrXrXrXrXrXsXrXrXkXrXrXdXrXgXyXyXrXvX0XsXpXpXfX;Xl y d , : V 7 i d r J.bXjXkXkXiX1XrXrXrXrXrXrXdXrXrXwXwXrXdXwXrXwX",
"rXrXrXrXrXrXrXrXwXrXrXrXrXrXaXrXrXrXdXrXrXrXrXrXrXrXrXrXrXrXrXrXrXrXrXrXrXrXyXyX0XsXqXsXsXlX|.= f z , d z : z j   F.aXqXkXqXkXrXdXrXrXrXrXrXdXrXrXdXdXrXrXrXrXrX",
"rXrXrXrXrXrXrXrXaXrXrXrXrXrXrXaXrXrXrXrXrXrXrXrXrXrXrXrXrXrXrXrXrXrXrXrXrXrXkXrXeXhXdXsXaX0XZ.r l z d d z l j r S @XlXuXkX1XrXrXwXrXrXrXrXrXwXrXrXwXrXrXrXdXwXrX",
"rXrXrXrXrXrXrXrXrXrXrXrXrXrXrXwXrXrXrXrXrXrXaXrXrXrXrXrXrXrXrXrXaXaXrXrXkXyXrXrXrXcX0XrXbXJ.O j F N P P I ,.Z l *XlXkX0XkXwXdXrXrXrXrXrXwXdXrXrXrXwXrXrXrXdXwXdX",
"rXrXrXrXwXrXrXaXrXrXrXrXrXrXrXrXrXrXrXrXrXrXrXrXrXrXrXrXrXrXrXrXwXaXrXrXrXrXrXrX0XrXwXwXBXJ.l i l l H j ; ; O j qXvXqX1XkXrXkXdXrXrXrXdXrXrXrXrXrXrXrXrXrXwXrXrX",
"aXrXrXrXaXrXrXrXrXrXrXrXrXrXrXrXrXaXrXdXwXaXaXaXaXrXaXaXaXrXdXrXrXaXrXdXrXrXrXrXkXqXbXrX<XlXjXU   # @ j :.y.p.|.1XkXkXdXdXtXqXsXrXrXrXwXrXdXrXrXrXwXrXrXrXrXrXrX",
"rXrXrXrXrXrXrXrXrXrXrXaXrXrXrXrXaXrXaXrXaXrXaXaXwXaXaXaXwXaXaXrXaXrXaXrXrXrXrXrXrXdX<XwXkX2XkX:X|.L.i.|.qXvXkXlXaXaXwXrXrXgXsXsXwXdXrXrXwXrXrXwXrXdXrXrXrXrXwXdX"
};
